<?xml version="1.0" ?><svg viewBox="0 0 512 512" xmlns="http://www.w3.org/2000/svg"><title/><g data-name="1" id="_1"><path d="M393.43,450H164.56a50.17,50.17,0,0,1-50.11-50.11V98.11A50.17,50.17,0,0,1,164.56,48h150.1a15,15,0,0,1,10.61,4.39L439.15,166.27a15,15,0,0,1,4.39,10.61v223A50.17,50.17,0,0,1,393.43,450ZM164.56,78a20.13,20.13,0,0,0-20.11,20.11V399.89A20.13,20.13,0,0,0,164.56,420H393.43a20.13,20.13,0,0,0,20.11-20.11V183.09L308.45,78Z"/><path d="M428.54,191.88H349.77a50.17,50.17,0,0,1-50.11-50.11V63a15,15,0,0,1,30,0v78.77a20.13,20.13,0,0,0,20.11,20.11h78.77a15,15,0,1,1,0,30Z"/><path d="M232.67,261.14c4.37,0,6.22,4.77,6.22,9.14,0,5-2.25,9.39-6.22,9.39H214.4v71.88c0,4.24-5.16,6.35-10.32,6.35s-10.33-2.11-10.33-6.35V279.67H175.48c-4,0-6.22-4.36-6.22-9.39,0-4.37,1.86-9.14,6.22-9.14Z"/><path d="M279,323.75l-19.33,32.83c-.93,1.46-2.78,2.12-4.9,2.12-5.69,0-13.76-4.5-13.76-10.19a7.11,7.11,0,0,1,1.19-3.71l22.9-35.34-22-35.21a7.55,7.55,0,0,1-1.32-4.11c0-5.56,7.55-9.79,13.37-9.79a6.44,6.44,0,0,1,6.22,3.44L279,294.5l17.6-30.71a6.45,6.45,0,0,1,6.22-3.44c5.83,0,13.37,4.23,13.37,9.79a7.47,7.47,0,0,1-1.32,4.11l-22,35.21,22.9,35.34a7.2,7.2,0,0,1,1.19,3.71c0,5.69-8.08,10.19-13.77,10.19-2.12,0-4.1-.66-4.9-2.12Z"/><path d="M382.51,261.14c4.37,0,6.22,4.77,6.22,9.14,0,5-2.25,9.39-6.22,9.39H364.24v71.88c0,4.24-5.16,6.35-10.32,6.35s-10.33-2.11-10.33-6.35V279.67H325.32c-4,0-6.22-4.36-6.22-9.39,0-4.37,1.86-9.14,6.22-9.14Z"/></g></svg>