<?xml version="1.0" ?><svg viewBox="0 0 32 32" xmlns="http://www.w3.org/2000/svg"><title/><g data-name="22-Document" id="_22-Document"><path d="M28.71,6.29l-6-6A1,1,0,0,0,22,0H6A3,3,0,0,0,3,3V29a3,3,0,0,0,3,3H26a3,3,0,0,0,3-3V7A1,1,0,0,0,28.71,6.29ZM27,29a1,1,0,0,1-1,1H6a1,1,0,0,1-1-1V3A1,1,0,0,1,6,2H21V6a2,2,0,0,0,2,2h4Z"/><rect height="4" rx="1" ry="1" width="4" x="14" y="14"/><rect height="4" rx="1" ry="1" width="4" x="20" y="14"/><rect height="4" rx="1" ry="1" width="4" x="8" y="14"/></g></svg>